<?xml version="1.0" standalone="no"?>
<!DOCTYPE svg PUBLIC "-//W3C//DTD SVG 20010904//EN"
 "http://www.w3.org/TR/2001/REC-SVG-20010904/DTD/svg10.dtd">
<svg version="1.0" xmlns="http://www.w3.org/2000/svg"
 width="808.000000pt" height="695.000000pt" viewBox="0 0 808.000000 695.000000"
 preserveAspectRatio="xMidYMid meet">

<g transform="translate(0.000000,695.000000) scale(0.100000,-0.100000)"
fill="#000000" stroke="none">
<path d="M4139 6801 c-23 -23 -29 -38 -29 -71 0 -33 6 -48 29 -71 16 -16 37
-29 45 -29 14 0 16 -45 16 -433 l0 -433 95 -117 95 -116 0 -245 0 -244 -72
-109 c-39 -59 -88 -136 -110 -171 l-38 -62 0 -153 c0 -83 -3 -182 -7 -219 l-6
-68 -37 0 -37 0 -6 68 c-4 37 -7 174 -7 305 l0 239 33 46 c17 26 37 52 43 57
6 6 25 29 42 51 l32 42 0 229 0 230 -61 69 c-95 107 -88 80 -89 353 -1 235 -1
244 19 258 40 27 20 93 -29 93 -58 0 -82 -65 -35 -96 l25 -16 0 -245 0 -244
32 -42 c18 -23 52 -63 75 -89 l43 -47 0 -222 0 -222 -27 -36 c-15 -20 -30 -38
-33 -41 -4 -3 -25 -31 -48 -62 l-42 -57 0 -243 c0 -134 -3 -273 -7 -310 l-6
-68 -37 0 -37 0 -6 68 c-4 37 -7 117 -7 177 l0 110 -70 123 -70 124 0 320 0
320 29 37 c15 20 47 63 70 95 l41 59 0 211 c0 200 1 212 20 224 42 26 16 82
-40 82 -28 0 -46 -40 -31 -69 7 -11 16 -21 21 -21 6 0 10 -82 10 -211 l0 -212
-70 -98 -70 -98 0 -321 0 -321 70 -125 70 -125 0 -107 c0 -59 -3 -137 -7 -174
l-6 -68 -37 0 -37 0 -6 68 c-4 37 -7 118 -7 180 0 85 -4 121 -16 145 -9 18
-20 34 -24 37 -3 3 -23 36 -43 75 l-37 69 0 373 0 373 60 116 60 115 0 325 c0
278 2 324 15 324 34 0 46 67 17 93 -25 23 -58 21 -82 -3 -26 -26 -25 -46 5
-76 l25 -25 0 -312 0 -312 -60 -123 -60 -122 0 -376 0 -377 42 -76 c23 -42 50
-87 60 -100 15 -20 18 -43 18 -146 0 -67 -3 -150 -6 -184 l-7 -61 -37 0 -37 0
-6 68 c-4 37 -7 126 -7 197 0 120 -2 136 -30 205 l-29 75 -1 387 0 387 30 89
c30 89 30 92 30 308 0 209 1 219 22 241 18 19 20 27 10 48 -15 33 -66 35 -83
4 -9 -18 -7 -27 10 -50 20 -27 21 -40 21 -243 0 -211 0 -216 -30 -306 l-30
-92 0 -386 1 -387 29 -75 c28 -70 30 -84 30 -211 0 -75 -3 -164 -6 -198 l-7
-61 -38 0 -39 0 0 678 0 678 -80 86 -80 86 0 159 0 158 80 80 80 80 0 132 c0
114 2 133 16 133 8 0 29 13 45 29 32 33 39 86 16 131 -15 30 -76 55 -112 46
-77 -19 -103 -120 -46 -177 16 -16 37 -29 45 -29 14 0 16 -18 16 -128 l0 -127
-80 -80 -80 -80 0 -168 0 -169 80 -85 80 -84 0 -629 c0 -408 -4 -631 -10 -635
-5 -3 -10 -24 -10 -46 0 -38 -1 -39 -35 -39 -19 0 -36 1 -37 3 -1 1 -4 301 -7
667 -6 654 -6 665 -26 675 -11 5 -50 28 -85 51 -36 22 -113 67 -172 100 l-108
59 0 284 0 283 25 20 c14 11 25 28 25 39 0 25 -35 59 -60 59 -24 0 -60 -34
-60 -55 0 -9 11 -27 25 -41 l25 -25 0 -287 0 -287 138 -79 c75 -43 163 -94
195 -114 l57 -35 0 -591 c0 -325 -3 -621 -7 -658 l-6 -68 -37 0 -37 0 -6 68
c-4 37 -7 194 -7 350 l0 283 -92 43 c-51 24 -190 91 -308 148 -118 58 -225
108 -237 112 l-23 7 0 293 c0 293 0 294 22 308 20 13 21 19 13 44 -7 19 -19
30 -33 32 -47 7 -69 -43 -35 -80 14 -16 16 -51 14 -312 l-2 -293 38 -16 c21
-8 146 -68 278 -132 132 -65 263 -128 292 -141 l53 -23 0 -278 c0 -153 -3
-308 -7 -345 l-6 -68 -43 0 -44 0 0 -40 0 -40 -40 0 c-22 0 -40 -4 -40 -10 0
-6 -48 -10 -124 -10 l-124 0 -69 77 c-37 43 -88 98 -113 123 -25 25 -97 101
-160 170 -63 68 -134 144 -158 167 l-42 43 -324 0 -324 0 -10 30 c-6 16 -26
39 -44 50 -69 43 -158 -5 -158 -86 0 -36 5 -47 35 -73 57 -49 139 -34 166 31
l11 28 323 0 322 0 68 -72 c38 -40 100 -107 139 -148 39 -42 122 -130 183
-195 62 -66 120 -130 128 -142 16 -22 21 -23 186 -23 l169 0 0 -39 0 -38 -61
-7 c-34 -3 -113 -6 -176 -6 -90 0 -123 4 -156 19 -23 10 -89 35 -146 55 l-103
36 -177 0 -176 1 -20 32 c-11 18 -54 98 -95 179 l-75 148 -244 0 -243 0 -20
25 c-35 45 -98 21 -98 -38 0 -46 76 -66 103 -27 14 20 23 20 253 18 l239 -3
85 -165 c47 -91 89 -171 93 -178 6 -9 58 -12 191 -12 l184 0 93 -34 c52 -19
111 -42 131 -50 28 -12 77 -17 188 -19 82 -1 150 -5 150 -9 0 -5 18 -8 40 -8
l40 0 0 -40 0 -40 -177 0 -177 0 -141 59 c-77 33 -153 67 -170 75 -24 13 -67
16 -220 16 l-190 1 -108 129 -107 130 -353 0 c-345 0 -352 0 -365 21 -16 26
-59 22 -78 -6 -28 -43 43 -90 76 -50 11 13 63 15 361 15 l348 0 38 -46 c21
-26 51 -61 66 -78 16 -17 49 -57 75 -88 l47 -58 194 0 193 0 165 -70 165 -70
139 0 c86 0 139 -4 139 -10 0 -5 18 -10 40 -10 l40 0 0 -40 0 -40 -184 0
c-200 0 -176 -5 -346 72 -134 61 -112 58 -387 58 l-255 0 -67 60 -68 60 -122
0 -122 0 -50 42 c-28 24 -48 47 -45 55 8 19 -14 62 -34 68 -50 16 -95 -39 -70
-85 10 -18 19 -21 52 -18 36 3 46 -1 88 -39 l48 -43 126 0 126 0 66 -60 66
-60 260 0 261 0 61 -30 c33 -16 99 -45 146 -65 83 -34 86 -35 227 -35 89 0
143 -4 143 -10 0 -5 18 -10 40 -10 40 0 40 0 40 -39 l0 -38 -61 -7 c-34 -3
-122 -6 -195 -6 l-133 0 -169 90 -168 90 -457 0 c-392 0 -457 2 -464 15 -5 8
-35 43 -68 78 -33 35 -86 93 -118 130 l-58 67 -160 0 c-139 0 -159 2 -159 16
0 9 -15 31 -34 50 -45 45 -92 47 -135 5 -37 -36 -47 -80 -27 -120 22 -41 53
-61 97 -61 30 0 43 7 68 35 17 20 31 40 31 45 0 6 61 10 153 10 l154 0 79 -87
c43 -49 100 -110 126 -137 27 -28 48 -54 48 -58 0 -4 205 -8 456 -8 l456 0 91
-46 c51 -25 128 -66 173 -90 l81 -44 135 0 c74 0 163 -3 197 -6 l61 -7 0 -33
0 -34 -219 0 -220 0 -98 62 c-54 33 -100 64 -103 68 -3 3 -33 23 -66 43 l-62
37 -257 0 -257 0 -37 -31 c-20 -17 -45 -38 -56 -47 -11 -10 -43 -37 -71 -60
l-52 -42 -430 0 -430 0 -12 30 c-31 74 -142 80 -183 10 -23 -38 -21 -71 6
-111 45 -68 132 -61 172 14 l20 37 431 0 432 0 108 90 109 89 255 1 255 0 40
-27 c22 -15 45 -31 50 -35 6 -5 60 -40 120 -78 l110 -70 183 0 c114 0 182 -4
182 -10 0 -5 18 -10 40 -10 40 0 40 0 40 -39 l0 -38 -61 -7 c-34 -3 -169 -6
-300 -6 l-239 0 -52 37 c-29 21 -55 40 -58 43 -3 3 -27 23 -54 43 l-49 37
-221 0 -221 0 -63 -55 c-35 -30 -78 -66 -96 -80 l-33 -25 -236 0 -236 0 -25
25 c-14 14 -32 25 -41 25 -21 0 -55 -36 -55 -59 0 -48 77 -71 102 -31 12 19
24 20 256 20 l243 0 42 32 c23 18 65 54 94 80 l52 48 217 0 217 0 36 -27 c20
-15 38 -30 41 -35 4 -4 35 -28 70 -53 l65 -45 241 0 c133 0 269 -3 303 -6 l61
-7 0 -37 0 -37 -61 -7 c-34 -3 -117 -6 -183 -6 -87 0 -127 -4 -141 -14 -11 -7
-62 -37 -113 -65 l-92 -51 -326 0 -326 0 -37 29 c-20 15 -60 44 -88 65 l-53
36 -215 0 c-199 0 -215 1 -224 19 -15 28 -49 33 -72 10 -22 -22 -23 -32 -9
-60 13 -23 62 -26 80 -4 10 12 48 15 223 15 l211 0 61 -42 c33 -23 75 -54 93
-70 l33 -28 324 0 324 0 44 30 c25 17 47 30 50 30 3 0 36 18 73 40 l69 40 116
0 c64 0 144 -3 178 -6 l61 -7 0 -38 0 -39 -179 0 c-158 0 -181 -2 -202 -18
-13 -10 -59 -37 -101 -60 l-78 -42 -382 0 -383 0 -120 60 -120 60 -308 0
c-303 0 -309 0 -326 21 -19 24 -63 28 -86 9 -18 -15 -20 -71 -3 -88 21 -21 65
-14 86 13 l20 25 305 0 305 0 123 -60 124 -60 384 0 384 0 96 51 c53 28 98 55
99 60 5 13 282 12 282 -1 0 -5 18 -10 40 -10 l40 0 0 -40 0 -40 -188 0 c-184
0 -189 0 -265 -30 l-78 -30 -400 0 -401 0 -76 28 c-75 26 -82 27 -302 27 -203
0 -226 2 -238 18 -18 23 -59 22 -72 -3 -27 -50 36 -95 71 -52 17 21 24 22 231
22 210 0 214 -1 298 -30 l85 -30 405 0 405 1 75 29 c71 28 83 30 223 30 91 0
147 -4 147 -10 0 -5 18 -10 40 -10 l40 0 0 -41 c0 -40 0 -40 -37 -38 -21 1
-327 1 -681 0 l-643 -1 -81 -80 -81 -80 -157 0 -158 0 -78 80 -78 80 -132 0
-132 0 -19 38 c-32 67 -116 80 -169 27 -28 -28 -33 -98 -9 -131 21 -30 68 -47
109 -40 35 7 76 46 76 72 0 11 28 14 135 14 l135 0 71 -75 72 -75 175 0 175 0
78 75 79 75 643 -3 c353 -2 657 -5 675 -5 31 -1 32 -3 32 -42 l0 -40 -663 0
-664 0 -12 -27 c-7 -15 -28 -52 -47 -83 -35 -54 -107 -180 -146 -252 l-20 -38
-283 0 -283 0 -16 25 c-18 27 -63 34 -84 13 -20 -20 -15 -76 7 -88 30 -16 60
-12 73 10 12 19 24 20 304 20 l291 0 53 93 c29 50 64 112 78 137 13 25 40 68
58 97 19 28 34 56 34 62 0 8 183 11 620 11 407 0 620 -3 620 -10 0 -5 18 -10
40 -10 40 0 40 0 40 -39 l0 -38 -61 -7 c-34 -3 -192 -6 -351 -6 l-289 0 -23
-52 c-13 -29 -76 -160 -139 -290 -64 -130 -123 -253 -131 -272 l-15 -36 -290
0 c-274 0 -292 1 -310 19 -23 23 -57 18 -71 -10 -20 -37 22 -79 60 -59 11 6
20 15 20 20 0 6 114 10 300 10 l300 0 111 228 c62 125 133 273 160 330 l48
102 300 0 c194 0 301 -4 301 -10 0 -5 18 -10 40 -10 l40 0 0 -40 c0 -42 2 -43
58 -40 32 2 32 1 32 -44 0 -25 5 -46 10 -46 6 0 10 -46 10 -118 l0 -118 -266
-249 c-147 -138 -277 -261 -290 -275 l-24 -25 0 -322 c0 -320 0 -322 -21 -328
-70 -22 -92 -121 -40 -175 62 -66 171 -22 171 69 0 43 -35 95 -70 106 -19 6
-20 18 -20 325 l0 319 72 68 c107 102 218 206 371 348 l137 128 0 169 0 168
39 0 38 0 6 -68 c12 -124 8 -292 -8 -325 -8 -18 -32 -83 -55 -146 l-40 -114 0
-173 c0 -169 -1 -174 -22 -186 -13 -7 -93 -49 -178 -94 l-155 -81 -3 -244 c-2
-207 -5 -245 -18 -252 -27 -15 -36 -57 -19 -83 36 -55 119 -11 95 50 -5 15
-17 29 -25 32 -13 5 -15 41 -15 244 l0 237 58 30 c31 17 107 57 167 88 61 32
116 62 123 68 9 7 12 57 12 186 0 193 0 191 86 408 20 52 24 78 24 175 0 62 3
143 6 179 l7 66 33 1 c34 1 34 1 34 -43 0 -25 5 -45 10 -45 6 0 10 -49 10
-126 l0 -126 -66 -157 c-37 -86 -71 -160 -75 -166 -5 -5 -9 -98 -9 -206 l0
-198 -135 -112 -135 -112 0 -351 c0 -339 -1 -352 -20 -369 -11 -9 -20 -24 -20
-32 0 -17 35 -55 50 -55 15 0 50 38 50 55 0 8 -9 23 -20 32 -19 17 -20 30 -20
365 l0 348 48 37 c26 21 86 72 135 112 l87 75 0 189 0 189 51 121 c28 67 61
142 72 167 18 39 22 70 27 225 l5 180 36 3 36 3 6 -68 c4 -37 7 -121 7 -186 0
-128 -6 -150 -88 -317 l-37 -75 -5 -272 -5 -272 -52 -53 -53 -54 0 -126 0
-127 -47 -51 c-29 -32 -52 -49 -61 -45 -8 3 -25 -2 -38 -10 -31 -20 -34 -79
-5 -95 50 -26 99 11 87 68 -6 24 0 35 39 76 l45 48 0 125 0 125 55 61 55 62 0
258 0 258 31 67 c96 205 99 215 100 362 0 74 4 158 7 185 7 50 7 50 45 51 l37
1 0 -43 c0 -24 5 -44 10 -44 15 0 13 -305 -1 -333 -7 -12 -15 -24 -18 -27 -4
-3 -39 -69 -79 -147 l-72 -141 -1 -449 0 -448 -121 -110 c-67 -60 -132 -120
-144 -132 -23 -21 -24 -27 -24 -176 l0 -155 -27 -11 c-31 -13 -73 -68 -73 -95
0 -54 75 -113 128 -101 62 14 102 77 82 130 -12 31 -57 75 -77 75 -10 0 -13
37 -13 152 l0 151 38 36 c21 20 87 79 145 131 l107 95 0 452 0 451 26 54 c15
29 54 103 88 163 l61 110 5 205 5 205 36 1 36 2 7 -67 c3 -36 6 -132 6 -213
l0 -148 -46 -72 c-26 -40 -76 -117 -110 -170 l-64 -97 0 -254 0 -253 90 -110
90 -109 0 -432 c0 -411 -1 -432 -18 -437 -65 -21 -90 -120 -43 -170 65 -69
181 -25 181 69 0 41 -30 84 -67 96 l-33 11 0 434 0 435 -57 71 c-32 40 -73 88
-90 107 l-33 36 0 249 0 248 110 171 110 171 0 151 c0 82 3 180 6 216 l7 66
37 0 37 0 7 -66 c3 -36 6 -172 6 -302 l0 -235 -32 -45 c-18 -24 -54 -70 -80
-103 l-47 -59 0 -218 -1 -219 80 -95 80 -94 0 -243 c0 -232 -1 -244 -20 -256
-26 -16 -26 -63 0 -87 28 -25 71 -10 85 29 8 25 6 31 -18 52 l-27 23 0 241 c0
275 9 244 -102 369 l-58 65 0 213 0 212 43 53 c23 29 59 76 79 104 l36 51 3
297 c4 322 3 318 60 314 25 -2 27 -6 33 -68 3 -36 6 -114 6 -175 0 -88 4 -116
18 -140 10 -16 36 -61 57 -100 21 -38 44 -79 51 -90 11 -15 14 -85 14 -337 l0
-318 -70 -97 -70 -97 0 -213 c0 -202 -1 -213 -20 -223 -40 -21 -16 -89 32 -90
41 0 57 71 21 93 -10 6 -13 54 -13 218 l0 209 36 53 c20 28 52 71 70 94 l34
41 0 326 c0 325 0 327 -23 364 -13 20 -45 75 -72 122 l-48 84 5 164 c6 173 9
185 53 180 16 -2 21 -12 23 -45 2 -24 8 -43 14 -43 8 0 9 -38 5 -128 -6 -122
-5 -129 18 -167 13 -22 42 -74 64 -115 l41 -75 0 -368 0 -368 -65 -128 -65
-127 0 -310 c0 -297 -1 -310 -20 -327 -22 -19 -27 -69 -7 -84 44 -35 97 -12
97 43 0 27 -5 37 -25 46 l-25 11 0 305 0 304 65 133 65 132 0 372 0 373 -41
76 c-23 43 -52 94 -66 114 l-25 37 7 170 8 171 38 0 39 0 0 -45 c0 -25 5 -45
10 -45 6 0 10 -57 10 -150 0 -135 2 -156 25 -216 l25 -66 0 -409 0 -409 -25
-72 c-24 -68 -25 -82 -25 -296 0 -217 -1 -224 -22 -241 -16 -13 -19 -24 -14
-44 7 -31 48 -46 71 -27 19 16 19 66 0 74 -13 5 -15 40 -15 234 0 221 1 232
25 296 l25 66 0 414 0 414 -25 66 c-23 62 -25 78 -25 259 l0 192 39 3 38 2 6
-67 c4 -38 7 -343 7 -678 l0 -610 80 -80 80 -80 0 -162 0 -163 -80 -77 -80
-77 0 -136 0 -136 -32 -9 c-46 -14 -74 -72 -58 -120 37 -112 200 -94 200 23 0
46 -39 102 -71 102 -18 0 -19 9 -19 134 l0 134 80 75 80 74 0 171 0 170 -80
82 -80 82 0 606 c0 334 3 637 7 675 6 64 7 67 32 67 59 -1 56 39 61 -674 l5
-655 60 -37 c33 -20 112 -65 175 -101 63 -36 117 -69 118 -74 2 -5 10 -9 18
-9 12 0 14 -46 14 -284 l0 -284 -25 -16 c-47 -31 -26 -96 30 -96 60 0 82 63
33 98 -17 12 -18 34 -18 302 l0 288 -142 82 c-79 45 -167 96 -195 114 l-53 31
1 605 c0 333 4 628 7 655 7 49 8 50 40 48 19 0 36 -4 40 -8 4 -4 9 -158 10
-344 l4 -337 171 -84 c95 -46 241 -116 325 -156 l152 -73 0 -113 c2 -388 -1
-470 -15 -485 -32 -32 -3 -90 39 -77 40 13 49 53 16 81 -19 17 -20 30 -20 314
l0 297 -32 13 c-18 7 -150 70 -293 139 -143 69 -275 132 -292 139 l-33 13 1
292 c0 160 4 314 7 341 7 49 8 50 45 53 36 3 37 4 37 43 l0 39 45 0 c25 0 45
5 45 10 0 6 46 10 118 10 l117 0 273 -290 273 -290 330 0 c311 0 329 -1 329
-18 0 -26 50 -70 86 -78 83 -16 156 87 108 154 -18 26 -65 52 -94 52 -35 0
-77 -28 -92 -60 l-13 -30 -321 0 -321 0 -60 62 c-135 142 -237 250 -359 380
l-128 138 -169 0 -168 0 3 38 3 37 177 3 177 2 145 -50 145 -50 174 0 c205 0
167 27 287 -204 l82 -156 244 0 c228 0 244 -1 253 -19 22 -40 92 -34 106 9 17
55 -61 93 -100 50 -17 -19 -31 -20 -250 -20 -208 0 -233 2 -247 18 -9 9 -51
87 -93 172 -43 85 -83 158 -89 162 -6 4 -90 7 -186 7 l-175 0 -130 47 -130 47
-152 4 c-88 2 -153 8 -153 13 0 6 -21 10 -46 10 l-45 0 3 38 3 37 174 3 173 3
92 -37 c50 -20 127 -54 171 -75 l80 -39 191 0 192 0 48 -57 c26 -32 55 -65 63
-74 9 -9 36 -42 60 -73 l44 -56 352 0 c339 0 353 -1 370 -20 10 -11 26 -20 35
-20 20 0 50 31 50 51 0 37 -55 52 -84 24 -12 -13 -67 -15 -364 -15 l-350 0
-46 57 c-26 32 -55 67 -64 78 -10 11 -37 44 -61 73 l-44 52 -194 0 c-171 0
-198 2 -231 19 -21 11 -97 44 -169 75 l-131 56 -129 1 c-70 0 -150 4 -178 7
-49 7 -50 8 -53 43 l-3 36 53 6 c29 4 112 7 185 7 137 0 136 0 263 -58 174
-79 135 -72 422 -72 l260 0 62 -60 63 -60 127 0 126 0 45 -41 c32 -30 45 -49
45 -69 0 -61 73 -82 104 -30 17 29 17 33 1 56 -13 21 -23 25 -54 23 -32 -3
-46 4 -89 39 l-50 42 -122 0 -122 0 -66 60 -67 60 -262 0 -263 0 -62 31 c-35
16 -100 46 -146 65 -79 33 -87 34 -215 35 -72 0 -154 4 -182 7 -49 7 -50 8
-53 45 l-3 37 45 0 c25 0 46 5 46 10 0 13 317 14 322 1 2 -5 75 -45 164 -90
l161 -81 449 0 449 -1 110 -121 c61 -67 120 -132 132 -145 21 -22 28 -23 178
-23 l155 0 10 -26 c18 -45 59 -74 107 -74 34 0 51 12 81 57 30 43 28 63 -12
109 -28 32 -39 39 -72 39 -45 0 -91 -29 -100 -62 -6 -23 -9 -23 -159 -23
l-153 0 -28 28 c-16 15 -76 81 -134 145 l-105 116 -453 1 -454 0 -131 67 c-73
37 -145 76 -160 88 -26 18 -48 20 -235 25 l-207 5 -3 38 -3 37 224 0 225 0
109 -73 c60 -40 133 -87 161 -105 l52 -32 257 0 257 0 60 47 c34 26 63 50 66
53 3 3 25 22 49 43 l45 37 433 0 c376 0 433 -2 433 -15 0 -8 13 -29 29 -47 84
-94 219 23 154 133 -39 66 -137 59 -170 -11 l-18 -39 -434 -1 -433 0 -52 -42
c-28 -23 -60 -50 -71 -60 -11 -9 -36 -30 -56 -47 l-37 -31 -251 0 c-170 0
-259 4 -274 11 -12 7 -74 47 -137 89 -174 117 -153 110 -355 110 -110 0 -175
4 -175 10 0 6 -20 10 -45 10 l-45 0 0 39 0 38 68 6 c37 4 173 7 303 7 l235 0
45 -32 c24 -18 46 -35 49 -38 3 -4 30 -25 61 -48 l56 -42 222 0 223 0 93 80
93 80 241 0 c227 0 241 -1 251 -19 25 -48 100 -27 100 27 0 16 -5 33 -12 40
-19 19 -63 14 -83 -8 -17 -19 -31 -20 -258 -20 l-240 0 -33 -25 c-18 -14 -61
-50 -96 -80 l-63 -55 -217 0 -217 0 -54 44 c-29 24 -77 60 -105 80 l-52 36
-237 0 c-131 0 -268 3 -305 7 l-68 6 0 37 0 37 68 6 c37 4 119 7 183 7 l115 0
115 65 114 65 324 0 324 0 51 -38 c28 -20 69 -50 92 -65 l40 -27 216 0 c201 0
216 -1 221 -18 5 -23 35 -32 65 -21 25 9 31 56 10 77 -17 17 -54 15 -72 -3
-13 -13 -49 -16 -225 -16 l-210 0 -53 37 c-29 21 -71 50 -92 66 l-39 28 -329
0 -329 0 -114 -65 -115 -65 -112 0 c-62 0 -143 3 -180 7 l-68 6 0 32 0 32 68
6 c37 4 119 7 182 8 109 1 117 2 160 29 25 16 71 43 102 60 l57 30 379 0 378
0 119 -60 119 -60 318 0 c200 0 318 -4 318 -10 0 -5 11 -17 24 -25 52 -35 107
26 72 80 -23 35 -72 35 -88 0 l-11 -25 -316 0 -316 0 -117 60 -116 60 -385 0
-384 0 -66 -35 c-37 -20 -83 -47 -103 -60 -35 -23 -44 -25 -163 -24 -69 0
-148 4 -176 7 -49 7 -50 8 -53 43 l-3 36 68 6 c37 4 124 7 193 7 115 0 131 2
200 30 l75 29 402 1 402 0 83 -30 c82 -30 83 -30 299 -30 180 0 219 -3 229
-15 26 -32 80 -12 80 30 0 45 -47 60 -77 25 -16 -19 -30 -20 -231 -20 -212 0
-214 0 -299 30 l-85 30 -399 0 -398 0 -83 -30 c-74 -27 -93 -30 -202 -30 -67
0 -151 3 -188 7 l-68 6 0 37 0 37 68 6 c37 4 343 7 681 7 l613 0 77 75 77 75
170 0 169 0 70 -75 69 -75 136 0 136 0 13 -36 c38 -104 196 -71 196 42 0 55
-34 93 -91 101 -33 4 -45 1 -71 -21 -18 -15 -35 -36 -38 -46 -6 -19 -16 -20
-139 -20 l-133 0 -71 75 -71 75 -175 0 -175 0 -78 -75 -78 -75 -610 0 c-335 0
-640 3 -677 7 l-68 6 0 38 0 39 665 0 665 0 20 38 c11 20 34 58 50 84 16 26
43 73 61 105 17 32 47 82 66 111 l35 52 282 0 c270 0 282 -1 294 -20 26 -42
102 -16 102 34 0 50 -63 73 -97 36 -18 -18 -36 -19 -307 -22 l-289 -3 -83
-145 c-45 -80 -87 -150 -93 -157 -6 -6 -20 -30 -32 -52 l-21 -41 -614 0 c-403
0 -614 3 -614 10 0 6 -20 10 -45 10 l-45 0 0 39 0 38 68 6 c37 4 196 7 353 7
l286 0 28 63 c16 34 81 170 145 302 65 132 120 250 124 263 l7 22 294 0 c284
0 295 -1 305 -20 14 -26 56 -26 70 -1 14 27 13 47 -6 65 -21 21 -41 20 -61 -4
-17 -19 -30 -20 -313 -20 l-295 0 -160 -330 -159 -330 -298 0 c-192 0 -298 4
-298 10 0 6 -20 10 -45 10 l-45 0 0 40 0 40 -40 0 -40 0 0 45 c0 25 -4 45 -10
45 -6 0 -10 48 -10 123 l0 124 87 79 c48 43 106 97 128 119 22 22 94 90 160
150 66 61 139 129 162 153 l43 42 0 325 c0 291 2 325 16 325 9 0 29 14 45 31
40 43 40 99 0 139 -39 40 -76 47 -117 25 -83 -44 -76 -162 12 -195 l24 -10 0
-318 0 -319 -68 -64 c-37 -35 -117 -109 -177 -164 -60 -55 -132 -123 -160
-150 -27 -28 -78 -75 -112 -104 l-63 -54 0 -173 0 -174 -39 0 -39 0 -7 93 c-4
50 -5 137 -3 192 4 90 10 113 56 239 l52 139 0 171 0 172 123 65 c67 36 148
79 179 95 l58 29 0 241 c0 228 1 242 20 259 25 23 26 67 2 88 -25 22 -48 21
-72 -3 -27 -27 -25 -56 5 -84 l25 -23 0 -234 0 -234 -138 -69 c-75 -38 -156
-81 -179 -95 l-43 -26 0 -175 c0 -175 0 -175 -35 -275 -20 -55 -43 -116 -53
-135 -12 -27 -18 -77 -23 -210 -4 -96 -7 -185 -8 -197 -1 -20 -7 -23 -40 -23
l-38 0 -6 68 c-4 37 -7 115 -7 174 l0 108 59 137 c32 76 66 152 75 168 13 25
16 65 16 225 l0 195 135 113 135 112 0 354 c0 305 2 355 15 360 19 7 20 60 0
76 -23 19 -64 4 -71 -26 -5 -18 -1 -31 15 -48 21 -22 21 -29 21 -367 l-1 -344
-46 -35 c-25 -19 -59 -48 -77 -63 -17 -16 -57 -49 -88 -75 l-58 -47 0 -190 0
-190 -72 -165 -71 -165 -8 -165 c-4 -91 -7 -175 -8 -187 -1 -20 -7 -23 -40
-23 l-38 0 -6 68 c-4 37 -7 117 -7 178 0 121 5 137 96 331 l34 72 0 262 0 262
65 72 65 73 0 122 0 123 36 43 c26 33 42 44 63 44 16 0 37 10 51 25 20 21 22
28 12 50 -32 71 -123 39 -108 -37 5 -25 -1 -36 -39 -77 l-45 -48 0 -125 0
-125 -60 -68 -60 -68 0 -261 c0 -260 0 -261 -26 -316 -92 -196 -94 -202 -94
-362 0 -92 -4 -148 -10 -148 -5 0 -10 -20 -10 -45 l0 -45 -39 0 -38 0 -6 68
c-12 126 -8 349 6 364 8 7 48 82 90 165 l77 152 1 448 1 448 96 87 c54 48 118
106 145 129 l47 42 0 153 0 153 39 21 c95 54 58 190 -52 190 -31 0 -46 -7 -73
-34 -39 -39 -43 -72 -17 -117 9 -16 32 -36 50 -44 l33 -16 0 -148 0 -149 -82
-73 c-46 -40 -108 -97 -138 -126 -30 -29 -58 -53 -62 -53 -4 0 -8 -206 -8
-458 l0 -457 -90 -167 -90 -167 0 -138 c0 -76 -3 -168 -7 -205 l-6 -68 -32 0
c-32 0 -32 0 -39 61 -3 34 -6 131 -6 216 0 175 -3 167 105 323 28 41 64 96 78
121 l27 46 0 260 0 260 -37 49 c-20 27 -39 51 -42 54 -3 3 -27 30 -53 62 l-48
56 0 431 c0 414 1 431 19 431 24 0 68 44 73 75 14 70 -30 125 -99 125 -36 0
-50 -6 -74 -29z m116 3 c8 -4 23 -20 31 -36 25 -48 -8 -118 -55 -118 -18 0
-12 24 9 38 40 25 16 87 -31 80 -36 -5 -47 -33 -26 -69 30 -54 15 -68 -28 -24
-67 66 8 164 100 129z m-603 -116 c27 -36 23 -92 -8 -117 -50 -39 -116 -19
-137 42 -9 23 16 82 40 96 27 17 85 5 105 -21z m1160 -45 c34 -39 39 -61 23
-93 -21 -40 -59 -64 -90 -56 -62 16 -87 97 -43 143 27 29 87 32 110 6z m-964
-105 c28 -28 -3 -82 -36 -62 -28 18 -37 41 -23 58 16 19 42 21 59 4z m-738
-73 c19 -23 3 -57 -27 -53 -34 4 -51 31 -34 52 17 20 45 21 61 1z m977 -201
c8 -22 -10 -49 -32 -49 -10 0 -22 7 -28 16 -15 24 -1 49 28 49 15 0 28 -7 32
-16z m1061 -261 c2 -25 -1 -33 -18 -38 -39 -12 -67 34 -38 63 23 23 53 10 56
-25z m-340 -5 c32 -32 0 -84 -37 -61 -22 14 -25 38 -6 57 20 19 27 20 43 4z
m589 -50 c30 -28 31 -78 1 -112 -38 -43 -94 -39 -126 9 -42 61 -8 125 67 125
22 0 43 -8 58 -22z m-3726 -1157 c40 -40 39 -81 -2 -115 -18 -15 -43 -26 -60
-26 -40 0 -79 40 -79 80 0 40 47 90 85 90 16 0 38 -12 56 -29z m-136 -276 c0
-27 -3 -30 -30 -30 -24 0 -31 5 -33 24 -4 27 13 42 43 39 15 -2 20 -11 20 -33z
m5543 -67 c30 -30 -3 -77 -40 -57 -18 9 -25 49 -11 62 10 11 38 8 51 -5z
m-6090 -240 c22 -21 30 -71 14 -94 -14 -20 -57 -44 -80 -44 -13 0 -37 13 -53
29 -81 81 35 187 119 109z m582 -7 c16 -31 2 -53 -34 -49 -37 4 -48 34 -20 55
25 18 42 16 54 -6z m3217 -748 l-2 -728 -727 -3 -728 -2 0 725 0 725 713 3
c391 1 720 3 729 5 16 2 17 -47 15 -725z m2514 518 c17 -18 29 -40 29 -56 0
-38 -50 -85 -90 -85 -44 0 -80 39 -80 85 0 79 84 112 141 56z m-160 -261 c10
-6 19 -19 19 -30 0 -16 -26 -40 -44 -40 -8 0 -36 31 -36 40 0 9 28 40 36 40 3
0 14 -5 25 -10z m-6306 -45 c44 -44 26 -61 -24 -24 -35 26 -68 18 -77 -18 -13
-49 54 -77 87 -37 14 17 39 19 39 3 0 -21 -58 -69 -85 -69 -38 0 -85 50 -85
90 0 71 94 107 145 55z m439 -181 c22 -9 20 -51 -3 -64 -34 -18 -67 30 -39 58
14 14 20 14 42 6z m5614 -36 c4 -33 -31 -49 -55 -25 -24 24 -8 59 25 55 21 -2
28 -9 30 -30z m501 -94 c79 -66 -1 -181 -92 -133 -25 14 -37 28 -37 47 0 19
21 14 47 -10 19 -18 27 -20 48 -10 25 11 31 34 19 66 -8 20 -57 21 -74 1 -16
-19 -40 -19 -40 -1 0 18 59 66 82 66 9 0 30 -12 47 -26z m-6375 -107 c26 -19
18 -61 -13 -65 -15 -3 -30 3 -38 14 -17 23 -16 29 3 48 19 19 25 20 48 3z
m-88 -201 c21 -18 28 -32 28 -61 0 -74 -84 -110 -138 -60 -79 73 28 192 110
121z m6303 -231 c50 -25 57 -91 15 -130 -44 -41 -90 -31 -128 28 -16 23 -17
31 -6 57 12 30 51 59 78 60 7 0 26 -7 41 -15z m-620 -79 c25 -30 -24 -71 -54
-46 -16 13 -20 42 -8 53 11 12 50 8 62 -7z m-5514 -247 c9 -26 -13 -51 -39
-47 -27 4 -34 47 -11 64 21 16 42 8 50 -17z m5546 -85 c9 -11 10 -20 2 -32
-24 -39 -82 -15 -68 28 8 24 47 27 66 4z m-84 -176 c30 -34 34 -55 19 -93 -37
-87 -156 -64 -156 30 0 73 90 115 137 63z m-3747 -1139 c59 -21 72 -100 22
-139 -33 -26 -75 -25 -106 3 -28 25 -34 48 -23 90 7 24 24 37 73 57 1 0 16 -5
34 -11z m544 -125 c19 -19 20 -25 3 -48 -18 -24 -51 -17 -55 12 -3 23 13 52
29 52 4 0 15 -7 23 -16z m-321 -45 c8 -31 -2 -49 -28 -49 -32 0 -49 23 -35 49
14 28 56 28 63 0z m1062 -250 c9 -28 -16 -53 -44 -44 -20 6 -29 43 -14 58 15
15 52 6 58 -14z m969 -185 c20 -19 20 -28 2 -44 -36 -29 -85 10 -56 45 16 19
35 19 54 -1z m-740 -70 c18 -17 19 -24 8 -40 -21 -32 -72 -18 -72 20 0 12 3
26 7 29 11 12 41 7 57 -9z m-923 -17 c8 -7 24 -24 33 -40 16 -23 17 -31 6 -58
-25 -59 -111 -75 -145 -26 -8 12 -15 36 -15 55 0 60 76 104 121 69z m1168 -52
c72 -37 45 -155 -35 -155 -49 0 -71 14 -84 55 -14 42 2 83 40 102 32 16 45 16
79 -2z m-679 -115 c-6 -10 -15 -22 -20 -25 -15 -9 -12 -51 5 -65 23 -19 64 -4
71 26 5 18 1 31 -15 48 -21 22 -28 46 -13 46 10 0 55 -31 64 -44 4 -6 8 -24 8
-41 0 -16 -4 -35 -8 -41 -14 -20 -57 -44 -80 -44 -29 0 -82 51 -82 79 0 31 20
68 44 79 28 13 38 5 26 -18z"/>
<path d="M3548 6645 c-10 -22 -9 -29 9 -47 28 -27 70 -18 79 17 8 33 -11 55
-47 55 -22 0 -32 -7 -41 -25z"/>
<path d="M4720 6599 c-9 -16 -8 -26 5 -45 19 -29 46 -31 70 -4 15 17 16 24 7
45 -15 32 -66 35 -82 4z"/>
<path d="M5302 5918 c-31 -31 6 -84 52 -72 30 7 45 46 26 69 -15 18 -61 20
-78 3z"/>
<path d="M1578 4754 c-16 -34 0 -59 37 -59 34 0 50 23 41 58 -9 38 -61 39 -78
1z"/>
<path d="M890 4180 c-15 -29 -3 -59 26 -66 32 -8 54 11 54 46 0 43 -60 57 -80
20z"/>
<path d="M7200 3941 c-16 -31 -12 -49 14 -66 19 -13 29 -14 45 -5 24 12 29 58
9 78 -18 18 -56 14 -68 -7z"/>
<path d="M850 3020 c-23 -23 -24 -33 -10 -61 12 -21 50 -25 68 -7 17 17 15 54
-4 72 -20 21 -30 20 -54 -4z"/>
<path d="M7148 2764 c-14 -31 -1 -57 31 -62 28 -4 51 14 51 42 0 50 -62 65
-82 20z"/>
<path d="M6460 2191 c-15 -30 -12 -48 11 -65 45 -31 96 33 57 72 -18 18 -56
14 -68 -7z"/>
<path d="M2748 1049 c-26 -15 -22 -53 6 -68 46 -25 90 14 66 59 -12 21 -44 26
-72 9z"/>
<path d="M3322 358 c-18 -18 -15 -42 8 -63 17 -15 24 -16 46 -7 21 10 25 18
22 45 -3 27 -7 32 -33 35 -17 2 -36 -3 -43 -10z"/>
<path d="M4492 308 c-20 -20 -14 -54 12 -68 43 -22 82 12 65 58 -9 25 -56 31
-77 10z"/>
</g>
</svg>
